<?xml version="1.0" encoding="UTF-8"?>
<svg version="1.1" xmlns="http://www.w3.org/2000/svg" width="512" height="512">
<path d="M0 0 C2.63024695 2.15995165 4.05383785 4.64770379 5.64453125 7.62890625 C6.14984375 8.56903564 6.65515625 9.50916504 7.17578125 10.4777832 C7.71589844 11.49573975 8.25601562 12.51369629 8.8125 13.5625 C9.97518937 15.73441303 11.13795243 17.90628662 12.30078125 20.078125 C12.90486816 21.21056641 13.50895508 22.34300781 14.13134766 23.50976562 C16.00478576 27.00893875 17.89593913 30.49794219 19.79296875 33.984375 C20.41260498 35.12575928 21.03224121 36.26714355 21.6706543 37.44311523 C22.858706 39.63133112 24.04885354 41.81841088 25.24145508 44.00415039 C34.41948492 60.97253611 40.06248472 76.22406518 36.27734375 95.72265625 C35.35847317 98.60575221 34.30082979 101.26996905 33 104 C32.649375 104.78117187 32.29875 105.56234375 31.9375 106.3671875 C25.37658719 119.53457502 13.69596664 129.08441249 0 134 C-6.61238973 135.86561289 -12.90752748 136.30342688 -19.75219727 136.31884766 C-21.30498634 136.33391609 -21.30498634 136.33391609 -22.8891449 136.34928894 C-26.28156014 136.37996783 -29.67389703 136.39711347 -33.06640625 136.4140625 C-35.4300961 136.43278644 -37.79377935 136.45236076 -40.15745544 136.4727478 C-46.35678202 136.52394529 -52.55613024 136.56363724 -58.7555542 136.60089111 C-65.09034525 136.64100851 -71.42504723 136.69206551 -77.75976562 136.7421875 C-90.1731144 136.83880014 -102.58651362 136.92325171 -115 137 C-115.42152344 137.78246094 -115.84304688 138.56492187 -116.27734375 139.37109375 C-116.82519531 140.38300781 -117.37304688 141.39492188 -117.9375 142.4375 C-118.48277344 143.44683594 -119.02804687 144.45617187 -119.58984375 145.49609375 C-121 148 -121 148 -122 149 C-120.807288 149.00219984 -120.807288 149.00219984 -119.5904808 149.00444412 C-100.25313823 149.04147732 -80.91597682 149.10044557 -61.57877731 149.18390274 C-52.22748268 149.22373153 -42.87627268 149.25610447 -33.52490234 149.27099609 C-25.37532538 149.28399276 -17.22593431 149.31090641 -9.07646203 149.35461307 C-4.76034914 149.37727276 -0.44446592 149.392908 3.87171173 149.39188385 C7.93313636 149.39113988 11.99405244 149.40898385 16.05534554 149.44116783 C17.54686986 149.44969597 19.03845103 149.45139704 20.52998924 149.44580269 C22.56487677 149.43918624 24.59979904 149.45940264 26.63458252 149.48101807 C28.34358671 149.48654882 28.34358671 149.48654882 30.08711624 149.49219131 C33.63417416 150.11055681 34.80921032 151.20049234 37 154 C37.56640625 156 37.56640625 156 37.5625 158 C37.58441406 158.66 37.60632813 159.32 37.62890625 160 C36.6179828 163.21486216 34.80780773 164.20867 32 166 C29.05857521 166.38466109 26.49617611 166.53814817 23.55880737 166.50336456 C22.70697254 166.50917833 21.85513772 166.51499209 20.97748971 166.52098203 C18.10954562 166.53563504 15.24245025 166.52167206 12.37451172 166.50793457 C10.30310566 166.51254138 8.23170286 166.51889281 6.16030693 166.52684355 C0.45757821 166.54359009 -5.24488385 166.53526626 -10.94761372 166.52289867 C-17.09357349 166.51387229 -23.23948645 166.52780591 -29.38543701 166.53881836 C-40.73298137 166.55560359 -52.08041664 166.55411164 -63.42795831 166.54317249 C-73.91033503 166.53311677 -84.39268048 166.53048041 -94.87506104 166.53526306 C-95.5699378 166.5355686 -96.26481456 166.53587414 -96.98074819 166.53618894 C-99.80136298 166.53743426 -102.62197775 166.53870786 -105.44259251 166.540028 C-131.91101045 166.55226853 -158.37937404 166.54116298 -184.8477836 166.51964041 C-208.37185881 166.50065747 -231.89584742 166.50235596 -255.41992188 166.52148438 C-281.83941668 166.54289528 -308.25886344 166.55140049 -334.67836571 166.53903532 C-337.49389012 166.53775242 -340.30941454 166.53650106 -343.12493896 166.53526306 C-343.81821089 166.53494675 -344.51148281 166.53463044 -345.22576298 166.53430455 C-355.70246273 166.5297515 -366.1791278 166.53508162 -376.65582275 166.54518127 C-388.5663487 166.55660579 -400.47677233 166.55339983 -412.38729429 166.5320583 C-418.46785764 166.52152324 -424.5482449 166.51746791 -430.62880707 166.53065491 C-436.19013051 166.54253369 -441.75111391 166.53609086 -447.3124063 166.5147447 C-449.32915272 166.51025945 -451.3459276 166.51258768 -453.36265588 166.52224785 C-456.09512013 166.53433705 -458.82640562 166.52201317 -461.55880737 166.50336456 C-462.34962448 166.51272923 -463.14044158 166.52209389 -463.95522285 166.53174233 C-467.68856686 166.48049572 -469.80941654 166.12158876 -472.9882679 164.09353971 C-475 162 -475 162 -475.62890625 160 C-475.60699219 159.34 -475.58507812 158.68 -475.5625 158 C-475.56378906 157.34 -475.56507813 156.68 -475.56640625 156 C-474.74878633 153.11295588 -473.28748589 151.90496562 -471 150 C-468.58282471 149.51898193 -468.58282471 149.51898193 -465.86425781 149.54589844 C-464.33312347 149.54635162 -464.33312347 149.54635162 -462.77105713 149.54681396 C-461.67613953 149.56745911 -460.58122192 149.58810425 -459.453125 149.609375 C-458.3267865 149.61503479 -457.200448 149.62069458 -456.03997803 149.62652588 C-452.44288618 149.64891455 -448.84679074 149.69911787 -445.25 149.75 C-442.8112123 149.77006167 -440.37240899 149.78831302 -437.93359375 149.8046875 C-431.95538926 149.84878756 -425.97776581 149.91572537 -420 150 C-420.42152344 149.32453125 -420.84304688 148.6490625 -421.27734375 147.953125 C-422.09912109 146.61507812 -422.09912109 146.61507812 -422.9375 145.25 C-423.75541016 143.92742187 -423.75541016 143.92742187 -424.58984375 142.578125 C-425.82715712 140.31600083 -426.53590513 138.51433675 -427 136 C-428.31194336 136.02094727 -429.62388672 136.04189453 -430.97558594 136.06347656 C-435.84331344 136.1358797 -440.71099335 136.18180113 -445.57910156 136.21972656 C-447.68595382 136.23984126 -449.79275025 136.26713667 -451.89941406 136.30175781 C-454.92787447 136.35028168 -457.95559678 136.37297016 -460.984375 136.390625 C-462.39707672 136.42159271 -462.39707672 136.42159271 -463.83831787 136.45318604 C-470.37832075 136.45542981 -470.37832075 136.45542981 -473.59277344 134.10058594 C-475.1095314 131.83650101 -475.54219507 130.70048437 -475.5 128 C-475.51546875 127.01 -475.51546875 127.01 -475.53125 126 C-474.7350001 123.00235331 -473.44101025 121.90334728 -471 120 C-468.31472719 119.60994074 -466.04046466 119.46613337 -463.35733795 119.50336456 C-462.19082978 119.49570652 -462.19082978 119.49570652 -461.00075579 119.48789376 C-458.37896156 119.47558169 -455.75811574 119.4919078 -453.13635254 119.50793457 C-451.24404095 119.50492545 -449.35173148 119.50015056 -447.45942831 119.49375582 C-442.2468 119.4812073 -437.03447801 119.49357973 -431.8218708 119.50983071 C-426.20474273 119.52296985 -420.58765201 119.51304544 -414.97052002 119.50572205 C-405.23156103 119.49602747 -395.49269142 119.50052496 -385.7537384 119.5141449 C-371.65968981 119.53348516 -357.565742 119.52707916 -343.47169083 119.51357108 C-320.58919126 119.49197053 -297.70672538 119.48523056 -274.82421875 119.49072266 C-273.79682827 119.49096226 -273.79682827 119.49096226 -272.74868243 119.49120671 C-261.63722701 119.49381528 -250.52577184 119.49718383 -239.41431665 119.50065076 C-229.01579452 119.50388759 -218.61727236 119.50684788 -208.21875 119.50927734 C-207.19373572 119.5095238 -207.19373572 119.5095238 -206.14801408 119.50977523 C-182.67250535 119.51531748 -159.19704067 119.50518221 -135.72153997 119.48270559 C-121.66553922 119.47000736 -107.60967424 119.47145861 -93.55368084 119.49115646 C-83.91771753 119.50376942 -74.281823 119.50229685 -64.64585978 119.48978293 C-59.08694068 119.48307352 -53.52822244 119.4829511 -47.9693222 119.5003643 C-42.87637085 119.51621545 -37.78376995 119.51358162 -32.69082564 119.49651426 C-30.85224903 119.49360476 -29.01364636 119.4974145 -27.17510253 119.50877243 C-17.0600637 119.56731427 -8.45068565 119.13297165 1 115 C1 114.01 1 113.02 1 112 C-0.56949581 110.40435995 -0.56949581 110.40435995 -2.625 108.875 C-10.37024077 102.3794346 -14.49239601 94.80268001 -15.75 84.8125 C-16.4557055 75.18092685 -14.56429469 66.94439762 -9 59 C-4.36173007 53.76708008 0.97424332 49.52181049 7 46 C6.67314209 45.4016333 6.34628418 44.8032666 6.00952148 44.18676758 C5.55134033 43.34782959 5.09315918 42.5088916 4.62109375 41.64453125 C3.8616748 40.25451904 3.8616748 40.25451904 3.08691406 38.83642578 C1.98372118 36.8139055 0.88282312 34.79013188 -0.21582031 32.76513672 C-3.71970451 26.30850296 -3.71970451 26.30850296 -7.35546875 19.92578125 C-13.39650957 9.40066888 -13.39650957 9.40066888 -12 3 C-8.3655827 -1.51548816 -5.40521016 -1.50144727 0 0 Z M15 61 C8.6971321 64.59508242 3.8934153 68.1021956 1 75 C0.05982229 81.92762524 0.35208402 87.66900257 4.578125 93.37890625 C8.3777334 97.71087736 11.21713403 99.46205898 17 100 C21.88283927 89.5149746 22.97470209 78.73006652 19.125 67.6875 C17.96591593 64.81554724 17.19933225 63.19933225 15 61 Z M-409 136 C-404.3773404 142.93398941 -400.22155618 146.31137753 -392.5625 149.375 C-383.8858728 150.8972153 -376.79580984 150.36058307 -369 146 C-363.3092945 141.9244384 -363.3092945 141.9244384 -360 136 C-376.17 136 -392.34 136 -409 136 Z M-333 136 C-329.46938069 143.06123862 -323.95476284 146.648673 -316.609375 149.30859375 C-309.14698305 151.28590419 -301.9197919 150.33543926 -295 147 C-289.80748696 143.84091864 -287.19388885 141.32314808 -284 136 C-300.17 136 -316.34 136 -333 136 Z M-258 136 C-254.7572549 142.4854902 -250.33984724 145.71919786 -243.625 148.375 C-234.25641912 151.41276873 -226.84272228 150.34800523 -218 146 C-213.67764998 143.1081236 -211.34613734 140.69227468 -209 136 C-225.17 136 -241.34 136 -258 136 Z M-183 136 C-178.69827242 143.16954597 -173.35067836 147.22264823 -165.27734375 149.52734375 C-157.25453202 151.19245562 -150.26669352 149.76329478 -143 146 C-139.71730172 143.59617174 -136.68595529 141.06397862 -134 138 C-134 137.34 -134 136.68 -134 136 C-150.17 136 -166.34 136 -183 136 Z M-347 147 C-347.99 148.485 -347.99 148.485 -349 150 C-347.35 150 -345.7 150 -344 150 C-344.99 149.01 -345.98 148.02 -347 147 Z M-272 147 C-272.33 147.99 -272.66 148.98 -273 150 C-271.68 149.67 -270.36 149.34 -269 149 C-269.99 148.34 -270.98 147.68 -272 147 Z M-197 147 C-197.33 147.99 -197.66 148.98 -198 150 C-196.68 149.67 -195.36 149.34 -194 149 C-194.33 148.34 -194.66 147.68 -195 147 C-195.66 147 -196.32 147 -197 147 Z " fill="#000000" transform="translate(475,259)"/>
<path d="M0 0 C0.89025314 -0.0055344 1.78050629 -0.01106879 2.6977368 -0.0167709 C5.68114508 -0.03038521 8.66371792 -0.01540377 11.64710999 -0.00050354 C13.78587194 -0.00428645 15.92463146 -0.00978626 18.06338501 -0.01687622 C23.87332779 -0.03085247 29.68297515 -0.01964528 35.49290156 -0.00316501 C41.57063838 0.01067398 47.64835785 0.00422666 53.72610474 0.0007019 C63.93419664 -0.00200133 74.14217104 0.01148449 84.35023499 0.03465271 C96.15352453 0.06125596 107.95661749 0.06301218 119.75992674 0.05126435 C131.11088701 0.04048574 142.46177616 0.04667477 153.81273079 0.06081963 C158.64474226 0.0665794 163.47670168 0.06649677 168.30871391 0.06175423 C173.99932311 0.05698263 179.68971702 0.06709397 185.38028526 0.08870888 C187.4692487 0.09427465 189.55823283 0.09474398 191.64719772 0.08975601 C194.49802911 0.08380248 197.34820249 0.09630997 200.19897461 0.11352539 C201.02631369 0.10751535 201.85365277 0.1015053 202.70606273 0.09531313 C208.97290133 0.16416081 212.98905744 1.72254225 217.91297913 5.75120544 C222.96905822 11.93085767 222.47049285 19.21434746 222.46376038 26.84104919 C222.4680455 27.92197342 222.47233063 29.00289764 222.47674561 30.11657715 C222.48247048 32.39508872 222.4830028 34.67361857 222.47865295 36.95213318 C222.47549261 40.42388793 222.49897751 43.89479021 222.52430725 47.36643982 C222.5265805 49.58714188 222.52728362 51.80784621 222.52626038 54.02854919 C222.53547012 55.05898849 222.54467987 56.0894278 222.5541687 57.15109253 C222.51360236 63.51948373 222.31127519 70.12620427 217.71102905 75.05770874 C212.59738461 79.44250055 209.06332732 79.64826693 202.55937195 79.64164734 C201.65802029 79.64461846 200.75666863 79.64758958 199.82800329 79.65065074 C196.78942479 79.65936432 193.75088556 79.66084822 190.71229553 79.66233826 C188.54117752 79.66696452 186.37006033 79.67198891 184.19894409 79.67738342 C178.28782575 79.69052715 172.37671877 79.69695612 166.46558809 79.70139408 C162.77597557 79.70432137 159.08636617 79.7084255 155.39675522 79.71289825 C143.86266901 79.72657781 132.32858994 79.73624247 120.79449618 79.74010015 C107.46156475 79.74458346 94.12875734 79.76214215 80.79585707 79.79110074 C70.5019944 79.8126858 60.2081606 79.82280271 49.91427553 79.82414126 C43.76049964 79.82519149 37.60681993 79.83114549 31.45306778 79.84896088 C25.66650785 79.8653869 19.88011697 79.86762373 14.0935421 79.85882187 C11.96664033 79.85804858 9.83972968 79.86243239 7.71285057 79.87228012 C4.81521436 79.88491246 1.91818481 79.87917042 -0.97944641 79.86869812 C-1.82633038 79.87675452 -2.67321435 79.88481093 -3.54576147 79.89311147 C-6.91483728 79.86452173 -9.37558655 79.75513641 -12.35961342 78.11300278 C-14.29117766 76.00573705 -14.34523293 74.8296875 -14.27452087 72.00120544 C-14.27323181 71.22776794 -14.27194275 70.45433044 -14.27061462 69.65745544 C-13.73808771 67.00921351 -12.95572314 66.13634508 -10.83702087 64.50120544 C-7.79877428 63.48845658 -5.70782172 63.46153385 -2.53623962 63.42308044 C1.55099595 63.07167222 1.55099595 63.07167222 5.01991272 61.07347107 C6.64530417 59.04610108 8.0039963 56.97365987 9.35047913 54.75120544 C10.43252338 53.11321028 11.51865082 51.47790702 12.60829163 49.84495544 C13.17451233 48.97870544 13.74073303 48.11245544 14.32411194 47.21995544 C17.5803862 42.40558076 21.16673637 37.84391546 24.72547913 33.25120544 C26.06218271 31.51842391 27.396931 29.78413162 28.72938538 28.04808044 C29.29600891 27.31428162 29.86263245 26.58048279 30.44642639 25.82444763 C32.45057137 23.11196809 34.31058085 20.31893804 36.16297913 17.50120544 C35.59557007 17.49755981 35.02816101 17.49391418 34.44355774 17.49015808 C28.5384168 17.44835099 22.63405443 17.37901859 16.72938538 17.29368591 C14.52568854 17.26545835 12.32189012 17.24425274 10.11805725 17.23020935 C6.9502098 17.20880498 3.78358605 17.16216646 0.61610413 17.11058044 C-0.36944458 17.10935181 -1.35499329 17.10812317 -2.3704071 17.1068573 C-9.20865306 16.96039505 -9.20865306 16.96039505 -12.4549408 14.58811951 C-13.93899828 12.34722154 -14.40473187 11.16923684 -14.39952087 8.50120544 C-14.42143494 7.84120544 -14.443349 7.18120544 -14.46592712 6.50120544 C-12.34662537 -0.23843741 -5.84511568 -0.06767649 0 0 Z M48.68983459 28.18089294 C45.71865465 32.69609828 42.34495683 36.91701849 39.03797913 41.18870544 C37.65899718 42.98843185 36.28135441 44.78918529 34.90516663 46.59104919 C34.26031311 47.435224 33.61545959 48.2793988 32.95106506 49.14915466 C26.73196365 55.92193068 26.73196365 55.92193068 23.16297913 63.50120544 C27.51740569 64.68245946 30.82704811 64.84410522 35.16297913 63.50120544 C39.59430572 59.52610694 42.50658683 53.99659877 45.59803772 48.97386169 C48.18293533 44.88964283 51.05339152 41.02056129 53.91297913 37.12620544 C54.99581068 35.63069083 56.07786496 34.13461307 57.15907288 32.63792419 C59.01900683 30.07264017 60.88525229 27.51224609 62.76063538 24.95823669 C63.49153381 23.96179138 64.22243225 22.96534607 64.97547913 21.93870544 C65.60067444 21.09179138 66.22586975 20.24487732 66.87001038 19.37229919 C68.25772834 17.74315273 68.25772834 17.74315273 68.16297913 16.50120544 C57.12309582 13.85667066 53.91857716 19.82402143 48.68983459 28.18089294 Z M77.26811504 30.59526825 C75.80532208 33.11802719 74.13189108 35.46835321 72.42860413 37.83323669 C71.41985988 39.32434031 70.4145258 40.81775786 69.41297913 42.31370544 C65.21239312 48.52711172 60.94179313 54.65331039 56.45594788 60.66526794 C55.06701329 62.26321503 55.06701329 62.26321503 55.16297913 63.50120544 C66.14998079 63.92003426 77.13505845 64.23893938 88.12844372 64.43382454 C93.2348823 64.527417 98.33582712 64.65406918 103.43910217 64.8591156 C126.24346935 67.13657104 126.24346935 67.13657104 146.58021545 59.72850037 C149.58618092 56.09622113 151.48437033 52.28352937 153.14077759 47.89175415 C154.93685696 43.69139339 157.74941707 40.19978492 160.47547913 36.56370544 C161.46031983 35.1722583 162.44142522 33.77815099 163.41688538 32.38011169 C166.4970924 28.01191584 169.65273572 23.70202174 172.83485413 19.40745544 C174.25825504 17.75167251 174.25825504 17.75167251 174.16297913 16.50120544 C163.15839153 16.1291053 152.15531825 15.84552701 141.14570236 15.67221069 C136.0320011 15.58898382 130.92262672 15.47631451 125.81141663 15.29417419 C120.87023902 15.1192123 115.93319615 15.02444913 110.98915863 14.98316956 C109.11163963 14.95379308 107.23432665 14.89641227 105.35858917 14.80952454 C90.62184695 14.15457472 84.62544455 17.77357419 77.26811504 30.59526825 Z M183.74403381 30.07933044 C182.13161106 32.54925535 180.47237607 34.98069336 178.79579163 37.40745544 C176.57029817 40.63008766 174.36113596 43.8626936 172.16688538 47.10667419 C169.0396894 51.71084908 165.78455999 56.2042414 162.45594788 60.66526794 C161.06701329 62.26321503 161.06701329 62.26321503 161.16297913 63.50120544 C167.41093588 63.52647669 173.65887954 63.54403888 179.90687561 63.55613708 C182.03415927 63.56117843 184.16143944 63.56801136 186.28871155 63.5766449 C189.33925738 63.58871923 192.38975758 63.59443559 195.44032288 63.59886169 C196.39760788 63.60402298 197.35489288 63.60918427 198.34118652 63.61450195 C199.22202408 63.61457748 200.10286163 63.61465302 201.01039124 63.61473083 C201.7898259 63.61695145 202.56926056 63.61917206 203.37231445 63.62145996 C205.18664448 63.69691931 205.18664448 63.69691931 206.16297913 62.50120544 C206.26102763 61.09445325 206.29096099 59.68285409 206.29237366 58.27268982 C206.2971019 56.9262439 206.2971019 56.9262439 206.30192566 55.55259705 C206.29990143 54.57657532 206.2978772 53.60055359 206.29579163 52.59495544 C206.29674835 51.59992004 206.29770508 50.60488464 206.2986908 49.57969666 C206.29937272 47.47133827 206.29751756 45.36297779 206.29335022 43.25462341 C206.28800216 40.01515517 206.2932948 36.77582559 206.29969788 33.53636169 C206.2990371 31.49339264 206.29775594 29.45042366 206.29579163 27.40745544 C206.29781586 26.43143372 206.29984009 25.45541199 206.30192566 24.44981384 C206.2987735 23.55218323 206.29562134 22.65455261 206.29237366 21.72972107 C206.29157806 20.93553772 206.29078247 20.14135437 206.28996277 19.32310486 C206.36182459 17.48130741 206.36182459 17.48130741 205.16297913 16.50120544 C193.57662518 12.82748346 189.27060865 21.59096121 183.74403381 30.07933044 Z " fill="#000000" transform="translate(13.837020874023438,162.49879455566406)"/>
<path d="M0 0 C0.88157272 -0.00845947 1.76314545 -0.01691895 2.6714325 -0.02563477 C3.6361145 -0.01956207 4.60079651 -0.01348938 5.5947113 -0.00723267 C6.61296494 -0.01248962 7.63121857 -0.01774658 8.68032837 -0.02316284 C12.05746162 -0.03639953 15.4341257 -0.027607 18.81126404 -0.01748657 C21.15956716 -0.01950734 23.50786968 -0.02241881 25.85617065 -0.02618408 C30.78665622 -0.03061332 35.71697901 -0.02416104 40.64744568 -0.01016235 C46.94990664 0.00686393 53.25198248 -0.00286637 59.55442905 -0.02087975 C64.40935121 -0.03175757 69.26418322 -0.02825176 74.1191082 -0.02049637 C76.441401 -0.01850198 78.76370211 -0.02092673 81.08598518 -0.02793503 C84.34562205 -0.03560775 87.60465061 -0.02386072 90.86424255 -0.00723267 C91.81475494 -0.01330536 92.76526733 -0.01937805 93.74458313 -0.02563477 C109.03574356 0.11788405 120.72615351 6.83174277 131.27220154 17.50204468 C133.37934103 20.01900061 134.01841743 21.24178707 135.13938904 24.12704468 C136.04385213 25.99583474 136.04385213 25.99583474 137.68235779 27.38095093 C142.20583846 28.63180009 146.76073402 28.77182122 151.43235779 29.00595093 C154.16587991 29.20017855 156.89669059 29.42353615 159.62767029 29.65048218 C160.31247467 29.70522202 160.99727905 29.75996185 161.70283508 29.81636047 C218.20653493 34.56907492 272.88519173 66.03513572 310.07298279 108.08407593 C312.33865688 110.8061448 314.52034731 113.57578775 316.68235779 116.38095093 C317.40818054 117.30810913 317.40818054 117.30810913 318.14866638 118.2539978 C333.78994939 138.26941477 333.78994939 138.26941477 333.62767029 144.47079468 C332.78253232 148.09599175 331.79523137 149.30570188 328.68235779 151.38095093 C324.80210857 151.98454525 323.1086888 151.64400623 319.74485779 149.56845093 C317.16354437 147.18570008 315.44724102 144.55707769 313.61985779 141.56845093 C306.8626432 130.52870341 298.14729559 120.7863026 289.36985779 111.31845093 C288.81999207 110.72387085 288.27012634 110.12929077 287.70359802 109.51669312 C251.3103311 70.92189175 195.59178663 46.99918044 142.83578682 45.28865564 C139.9333732 45.25202335 137.03250549 45.24457444 134.12986755 45.24964905 C133.03212824 45.24753333 131.93438892 45.24541762 130.80338478 45.24323779 C127.16016756 45.23729184 123.51698549 45.23823402 119.87376404 45.23910522 C117.24797508 45.23607037 114.62218664 45.23254802 111.99639893 45.22857666 C106.36044828 45.2205034 100.7245021 45.21553394 95.08854675 45.212286 C86.18115861 45.20676556 77.27380822 45.18984728 68.36643982 45.17094421 C65.31401068 45.1645895 62.26158145 45.1582809 59.20915222 45.15196705 C58.06533899 45.1495914 58.06533899 45.1495914 56.89841843 45.14716777 C48.23964959 45.12927028 39.58087816 45.11302131 30.92210388 45.09799194 C30.131445 45.09661607 29.34078611 45.0952402 28.52616787 45.09382264 C15.68388009 45.0718432 2.8416022 45.06112216 -10.00070107 45.0536212 C-23.19968942 45.04555663 -36.39859317 45.02229597 -49.59753323 44.98566753 C-57.7333043 44.96363534 -65.86890155 44.95397997 -74.00470096 44.96016786 C-80.2284063 44.96371084 -86.45189425 44.94651667 -92.67554665 44.92148972 C-95.23138311 44.9145466 -97.78724859 44.9144846 -100.34308434 44.92168999 C-103.82273733 44.93051202 -107.30144526 44.91499217 -110.78102112 44.89320374 C-111.80006751 44.90164627 -112.8191139 44.91008881 -113.86904049 44.91878718 C-120.68644665 44.83944464 -120.68644665 44.83944464 -123.94297791 42.47393513 C-125.42547508 40.21677085 -125.85949051 39.05924174 -125.81764221 36.38095093 C-125.82795471 35.72095093 -125.83826721 35.06095093 -125.84889221 34.38095093 C-125.03164549 31.30425738 -123.88459282 30.29239163 -121.31764221 28.38095093 C-118.15189746 27.77100968 -115.01690989 27.83467763 -111.80122375 27.86196899 C-110.82592059 27.85446774 -109.85061743 27.84696649 -108.84575963 27.83923793 C-105.56892019 27.8188948 -102.29276833 27.82707662 -99.0158844 27.83505249 C-96.67048963 27.82632111 -94.32510082 27.81583686 -91.97972107 27.8037262 C-85.60408109 27.77579255 -79.22863477 27.77246315 -72.85294247 27.77344608 C-66.86755981 27.77063956 -60.88225391 27.74952817 -54.89691415 27.72847947 C-43.04172346 27.68738562 -31.18656718 27.66408232 -19.33131409 27.65194702 C-7.81500439 27.64012062 3.70124051 27.61992796 15.21751404 27.58847046 C16.28229512 27.58556631 16.28229512 27.58556631 17.36858693 27.58260348 C20.92971374 27.57283898 24.49084007 27.56290986 28.05196619 27.55289888 C57.59539328 27.47005992 87.13883528 27.41638091 116.68235779 27.38095093 C108.22557765 19.74752835 100.80834942 16.7587492 89.35496521 16.88265991 C88.37642578 16.87714111 87.39788635 16.87162231 86.38969421 16.86593628 C84.28418157 16.85667318 82.17861288 16.85646357 80.07309532 16.86453056 C76.7395484 16.87722858 73.40682106 16.86581023 70.07330322 16.84849548 C64.20461631 16.82188186 58.3361327 16.81619697 52.46739197 16.81759644 C43.05739239 16.81983151 33.64764273 16.80573833 24.23774147 16.76201057 C20.9554895 16.75217255 17.67363177 16.76088602 14.39138794 16.77070618 C12.38184856 16.76456341 10.37231133 16.75765216 8.36277771 16.74984741 C7.45203995 16.75756668 6.54130219 16.76528595 5.60296631 16.77323914 C0.80264176 16.73472542 -2.42079524 16.50924065 -6.31764221 13.38095093 C-8.27902609 10.79549037 -8.33062485 9.59300067 -8.13014221 6.31845093 C-6.81482953 1.56308969 -4.9042871 0.00724237 0 0 Z " fill="#000000" transform="translate(125.31764221191406,86.61904907226563)"/>
<path d="M0 0 C14.36299309 7.18771331 27.2054875 15.52345535 39.79370117 25.49389648 C40.64810791 26.1704126 40.64810791 26.1704126 41.51977539 26.8605957 C55.08416372 37.71935359 67.28313536 49.96231413 77.62963867 63.9284668 C78.67656584 65.33637305 79.74922752 66.72505544 80.82495117 68.11108398 C85.34751297 74.06084766 89.24563456 80.35379357 93.10620117 86.74389648 C93.62239014 87.59612793 94.1385791 88.44835937 94.67041016 89.32641602 C99.68501016 97.74475092 103.03853859 104.448348 101.79370117 114.49389648 C100.15928651 120.83542539 96.5013022 123.92400156 91.11010742 127.36499023 C86.44764645 129.63725199 81.82285929 129.62357482 76.70288086 129.63916016 C76.00769348 129.64251877 75.3125061 129.64587738 74.59625244 129.64933777 C72.30267532 129.65881588 70.00917166 129.66079033 67.71557617 129.66186523 C66.10434948 129.66508364 64.49312307 129.66844815 62.88189697 129.67195129 C59.49930141 129.67793735 56.11673135 129.6797921 52.73413086 129.67919922 C48.44804422 129.67909846 44.16212649 129.69266229 39.87607956 129.70997143 C36.54184252 129.72122906 33.20764427 129.72311415 29.8733902 129.72258949 C28.29651567 129.72375242 26.71963956 129.72807651 25.14278412 129.73592186 C16.93651684 129.77287889 8.85211108 129.54667584 0.69311523 128.61230469 C-0.31964415 128.4975103 -0.31964415 128.4975103 -1.35286331 128.38039684 C-15.82722713 126.54531484 -33.31606326 120.51533775 -44.20629883 110.49389648 C-45.46239898 106.80410228 -45.54982696 105.23002819 -43.89379883 101.68139648 C-42.20629883 99.49389648 -42.20629883 99.49389648 -40.20629883 98.49389648 C-34.15596764 97.92339379 -30.68384947 99.39224934 -25.58129883 102.24389648 C-8.31518955 111.31936528 9.40390966 112.82002334 28.56323242 112.75952148 C30.10259563 112.76087359 31.64195842 112.76281862 33.18132019 112.76531982 C36.36864385 112.76823398 39.55585382 112.76408732 42.74316406 112.75463867 C46.82743274 112.74311891 50.91144209 112.74990488 54.99570179 112.7617836 C58.15693639 112.768996 61.3181089 112.76671933 64.47934532 112.76152802 C65.98684406 112.7601963 67.49434848 112.76182247 69.00184059 112.76648712 C71.09513104 112.77155594 73.18799169 112.76384335 75.28125 112.75268555 C76.46987137 112.75109436 77.65849274 112.74950317 78.88313293 112.74786377 C81.98719488 112.71176462 81.98719488 112.71176462 84.79370117 110.49389648 C84.20776871 105.79742243 82.17390639 102.09918964 79.85620117 98.05639648 C79.45723633 97.35554932 79.05827148 96.65470215 78.6472168 95.93261719 C60.79532991 65.15338219 34.58539413 38.98688027 3.61743164 21.52319336 C2.42455346 20.84994377 1.23585127 20.1692269 0.05200195 19.48022461 C-15.09644014 10.67189274 -31.54389093 4.46891517 -48.45629883 -0.00610352 C-49.3715332 -0.24925293 -50.28676758 -0.49240234 -51.22973633 -0.74291992 C-57.46825359 -2.30141248 -63.75938906 -3.40541682 -70.20629883 -3.50610352 C-72.23920843 -1.47319391 -71.41851685 2.69752961 -71.44458008 5.48999023 C-71.45265182 6.31153091 -71.46072357 7.13307159 -71.46903992 7.97950745 C-71.48291934 9.73403805 -71.49362409 11.48859609 -71.50146484 13.24316406 C-71.51282511 15.00496555 -71.53301305 16.76673721 -71.56298828 18.52832031 C-71.82908702 34.17165554 -70.56443963 49.63121237 -63.20629883 63.74389648 C-62.87629883 64.42323242 -62.54629883 65.10256836 -62.20629883 65.80249023 C-60.63923259 68.96722947 -58.98198063 71.82326511 -56.98754883 74.75170898 C-54.69289906 78.28426192 -54.59355309 80.35786278 -55.20629883 84.49389648 C-57.28857329 87.53722069 -58.66829387 88.33697837 -62.20629883 89.36889648 C-65.52529351 89.50718793 -66.49179061 89.31215341 -69.20629883 87.49389648 C-81.79648183 70.49840094 -88.52771475 49.63725595 -88.50708008 28.56811523 C-88.5113652 27.57689163 -88.51565033 26.58566803 -88.52006531 25.56440735 C-88.52576092 23.4897233 -88.52634451 21.41501929 -88.52197266 19.34033203 C-88.51878916 16.17177649 -88.54241259 13.00413552 -88.56762695 9.83569336 C-88.56989814 7.80900182 -88.57060428 5.78230779 -88.56958008 3.75561523 C-88.57878983 2.8148967 -88.58799957 1.87417816 -88.5974884 0.904953 C-88.55325694 -5.37952647 -87.70450614 -9.82153799 -83.26879883 -14.58813477 C-82.58817383 -15.15918945 -81.90754883 -15.73024414 -81.20629883 -16.31860352 C-80.52567383 -16.90254883 -79.84504883 -17.48649414 -79.14379883 -18.08813477 C-61.01416382 -31.35639587 -16.72698684 -8.18327042 0 0 Z " fill="#000000" transform="translate(345.206298828125,164.506103515625)"/>
<path d="M0 0 C1.10425676 -0.00872064 1.10425676 -0.00872064 2.23082173 -0.01761746 C4.71136421 -0.03228003 7.19092684 -0.01830376 9.67146301 -0.00457001 C11.46223299 -0.00917646 13.25299919 -0.01552766 15.04375744 -0.02347898 C19.9753829 -0.04023053 24.90670012 -0.03189956 29.83832693 -0.01953411 C35.15265116 -0.01050971 40.46692117 -0.02444035 45.78123474 -0.0354538 C56.19619978 -0.05327156 66.61104973 -0.04938454 77.02601933 -0.03780323 C85.48795217 -0.02878198 93.94985268 -0.02753924 102.41178894 -0.0318985 C103.61459887 -0.03251143 104.81740879 -0.03312436 106.05666751 -0.03375587 C108.49989646 -0.03503473 110.9431254 -0.03633158 113.38635433 -0.03764623 C136.31457984 -0.04906158 159.24274146 -0.03592336 182.17095649 -0.01444477 C201.85873872 0.00342706 221.54642663 0.00032322 241.23420715 -0.01811981 C264.07850988 -0.03950968 286.92275656 -0.04796285 309.76706791 -0.03567076 C312.20147768 -0.03439652 314.63588746 -0.03313903 317.07029724 -0.0318985 C318.2681783 -0.0312814 319.46605935 -0.03066429 320.70023984 -0.03002849 C329.15529134 -0.02656994 337.61030738 -0.03241481 346.06535339 -0.04181671 C356.36454086 -0.05301715 366.66360633 -0.05003787 376.96277976 -0.02869374 C382.2209633 -0.01815698 387.47894321 -0.0141061 392.7371254 -0.02729034 C397.5459505 -0.03916582 402.35438225 -0.03273213 407.16317141 -0.01138014 C408.90738745 -0.00689343 410.65163639 -0.00922637 412.39583147 -0.01888329 C414.75839559 -0.03096551 417.11959457 -0.0186573 419.48208618 0 C420.796788 0.00064941 422.11148981 0.00129882 423.46603107 0.00196791 C427.28388292 0.58647207 428.44457806 1.46118685 430.74104309 4.50336456 C431.83414692 7.54843951 431.86286048 9.06685226 430.99104309 12.19086456 C429.74104309 14.50336456 429.74104309 14.50336456 426.74104309 16.50336456 C423.59779227 16.75636423 423.59779227 16.75636423 419.62354469 16.76063347 C418.89051534 16.76413954 418.15748598 16.76764562 417.40224361 16.77125794 C414.92661174 16.78062007 412.45121264 16.77563632 409.97557068 16.7707901 C408.19050446 16.77452394 406.40543987 16.77912439 404.6203779 16.78452075 C399.69990893 16.79679907 394.77950771 16.79648462 389.85902691 16.79413199 C384.55831024 16.79372505 379.25761565 16.80475127 373.95690918 16.81424713 C363.56623674 16.83088444 353.17558699 16.8363579 342.78490235 16.83747189 C334.34202994 16.83842105 325.89916505 16.8425247 317.45629501 16.84887314 C293.53819417 16.86649279 269.62011129 16.87571085 245.70200391 16.87421219 C244.41164465 16.87413228 243.12128539 16.87405237 241.79182434 16.87397003 C240.4998962 16.87388827 239.20796806 16.87380651 237.87689058 16.87372227 C216.93211579 16.87290911 195.98741288 16.89205258 175.04265888 16.92024677 C153.55534883 16.94894391 132.06807386 16.96278882 110.58074415 16.96105921 C98.50974264 16.96039423 86.43881647 16.965934 74.36783218 16.98741531 C64.09135158 17.00558543 53.81498046 17.01000884 43.53849079 16.99639647 C38.29233354 16.98984577 33.04638661 16.98982513 27.8002491 17.00710297 C23.00121434 17.02274616 18.20255818 17.02006026 13.40353315 17.0025347 C11.6639744 16.9994454 9.92438801 17.00316916 8.18486185 17.01425485 C5.8261859 17.02829513 3.46885287 17.01785487 1.11022377 17.0011425 C-0.20160263 17.00157724 -1.51342904 17.00201197 -2.86500776 17.00245988 C-6.81270148 16.42193396 -8.47427419 15.30835039 -11.25895691 12.50336456 C-11.88786316 10.50336456 -11.88786316 10.50336456 -11.82145691 8.50336456 C-11.82274597 7.84336456 -11.82403503 7.18336456 -11.82536316 6.50336456 C-10.09841511 0.40545145 -5.63385626 0.0027829 0 0 Z " fill="#000000" transform="translate(11.258956909179688,313.4966354370117)"/>
<path d="M0 0 C0.73364867 -0.00581376 1.46729734 -0.01162753 2.22317779 -0.01761746 C4.68913111 -0.03225131 7.15409433 -0.01831709 9.62004089 -0.00457001 C11.40271165 -0.0091776 13.18537862 -0.01552956 14.96803761 -0.02347898 C19.87267067 -0.04021495 24.7769934 -0.03190657 29.68162775 -0.01953411 C34.96868678 -0.01050338 40.25569153 -0.02444351 45.54273987 -0.0354538 C55.90242396 -0.05326476 66.2619923 -0.04938755 76.62168097 -0.03780323 C85.03924496 -0.02877932 93.45677644 -0.02754039 101.87434387 -0.0318985 C103.07117886 -0.03251143 104.26801386 -0.03312436 105.50111657 -0.03375587 C107.93226426 -0.03503474 110.36341193 -0.03633159 112.7945596 -0.03764623 C135.60550428 -0.04905958 158.41638473 -0.03592648 181.22731888 -0.01444477 C200.81130202 0.00342688 220.39519033 0.00032299 239.97917175 -0.01811981 C262.70702902 -0.03951318 285.43482995 -0.04796088 308.16269588 -0.03567076 C310.5850315 -0.03439653 313.00736713 -0.03313904 315.42970276 -0.0318985 C317.21757846 -0.03097285 317.21757846 -0.03097285 319.04157287 -0.03002849 C327.45158253 -0.02657099 335.86155653 -0.03241255 344.27156067 -0.04181671 C354.51689676 -0.05302104 364.76211023 -0.05002963 375.00743222 -0.02869374 C380.23739323 -0.01816225 385.4671496 -0.01409722 390.69710922 -0.02729034 C395.48127505 -0.03917662 400.26504582 -0.03271405 405.04917562 -0.01138014 C406.7832854 -0.00689806 408.51742831 -0.00921615 410.25151694 -0.01888329 C412.60283945 -0.03098965 414.95279626 -0.01863237 417.30404663 0 C418.61175113 0.00064941 419.91945562 0.00129882 421.26678753 0.00196791 C425.21724965 0.5870818 426.86366592 1.69681043 429.65202332 4.50336456 C431.11498809 7.9779059 430.7647745 9.22417115 429.33952332 12.75336456 C427.65202332 15.50336456 427.65202332 15.50336456 425.65202332 16.50336456 C423.31608905 16.602773 420.97720843 16.63440671 418.63916206 16.63758564 C417.90529858 16.63993787 417.1714351 16.6422901 416.41533333 16.64471361 C413.93091179 16.65142509 411.44654229 16.65094475 408.96211243 16.65053558 C407.17307291 16.65383286 405.38403414 16.65755814 403.59499633 16.66167706 C398.65895333 16.67172045 393.72292249 16.6754176 388.78687072 16.67806637 C383.47116434 16.68196244 378.15546766 16.69154115 372.83976746 16.70027924 C359.9936063 16.72006208 347.14744433 16.73011157 334.30127174 16.73900703 C328.25785795 16.74338642 322.21444504 16.74875408 316.17103195 16.7539959 C296.09245294 16.771009 276.01387449 16.78550486 255.93528938 16.79274464 C250.72221501 16.79465465 245.50914064 16.79657497 240.29606628 16.79853058 C239.00031972 16.79901432 237.70457315 16.79949806 236.36956154 16.79999646 C215.36261927 16.80830308 194.35573384 16.83365029 173.34881641 16.86611126 C151.80165617 16.89913677 130.25452486 16.91718926 108.70733917 16.92038888 C96.60113813 16.92255802 84.49501998 16.93136572 72.38884354 16.95685005 C62.08230575 16.97849544 51.77587098 16.98663792 41.46931304 16.97688327 C36.20708064 16.9723208 30.94506108 16.97433727 25.68285751 16.99364471 C20.87027258 17.01115067 16.05805773 17.01038184 11.24546956 16.99474742 C9.49983943 16.99235212 7.75418451 16.99679334 6.0085925 17.00857607 C3.64412713 17.02355392 1.28099728 17.01412224 -1.08343315 16.99834919 C-3.05711209 16.9998144 -3.05711209 16.9998144 -5.07066333 17.00130922 C-8.88054505 16.42244781 -10.05615146 15.53822568 -12.34797668 12.50336456 C-12.91438293 10.50336456 -12.91438293 10.50336456 -12.91047668 8.50336456 C-12.93239075 7.84336456 -12.95430481 7.18336456 -12.97688293 6.50336456 C-11.07804249 0.46481606 -5.49090153 0.0027268 0 0 Z " fill="#000000" transform="translate(12.347976684570313,342.4966354370117)"/>
<path d="M0 0 C0.85232712 -0.00686325 1.70465424 -0.0137265 2.58280945 -0.02079773 C5.40441478 -0.03912108 8.225467 -0.03522031 11.04711914 -0.02954102 C13.00623252 -0.03410028 14.9653443 -0.03940508 16.92445374 -0.04542542 C21.03270968 -0.05436748 25.14077135 -0.05192107 29.24902344 -0.04199219 C34.5163887 -0.03050316 39.78308352 -0.05070749 45.05036068 -0.07990932 C49.09697233 -0.09824722 53.14342262 -0.09798364 57.19006538 -0.0922718 C59.1321564 -0.09211828 61.07425814 -0.09818797 63.01630974 -0.11056328 C65.73135411 -0.12542544 68.44515117 -0.11483162 71.16015625 -0.09765625 C72.36581238 -0.1121582 72.36581238 -0.1121582 73.5958252 -0.12695312 C77.13763129 -0.07998684 79.23896218 0.10970764 82.14381409 2.21665955 C84.3477308 5.42848946 84.18770469 7.60354761 83.64477539 11.40405273 C81.4261451 14.31122346 80.1253261 15.24386916 76.64477539 16.40405273 C74.03993571 16.51039347 71.46145589 16.56129271 68.85620117 16.56518555 C67.66790207 16.5726329 67.66790207 16.5726329 66.45559692 16.58023071 C63.83375176 16.59484089 61.21196708 16.60165219 58.59008789 16.60717773 C56.76789346 16.61292984 54.94569904 16.61868756 53.12350464 16.62445068 C49.30197874 16.63495721 45.48047386 16.64080225 41.65893555 16.64428711 C36.76397294 16.64977314 31.86928832 16.67380493 26.97441292 16.70225906 C23.2100239 16.72088878 19.44570182 16.72609121 15.6812706 16.72762299 C13.87676345 16.73064895 12.07225746 16.7386756 10.26779556 16.75180817 C7.74236173 16.76887683 5.2176069 16.76698664 2.69213867 16.76049805 C1.5760321 16.77432022 1.5760321 16.77432022 0.43737793 16.78842163 C-4.42216553 16.74934062 -7.8573174 15.90195994 -11.35522461 12.40405273 C-11.55834961 10.44311523 -11.55834961 10.44311523 -11.60522461 8.02905273 C-11.63100586 7.23756836 -11.65678711 6.44608398 -11.68334961 5.63061523 C-11.35522461 3.40405273 -11.35522461 3.40405273 -10.35691833 1.79014587 C-7.17380569 -0.41403279 -3.73814567 -0.0208835 0 0 Z " fill="#000000" transform="translate(11.355224609375,86.595947265625)"/>
</svg>
